# xmcd
#
# Track frame offsets: 
#        150
#        24726
#        51740
#        72290
#        105052
#        135325
#        163053
#        181917
#
# Disc length: 2840 seconds
#
# Revision: 1
# Processed by: cddbd v1.5.2PL0 Copyright (c) Steve Scherf et al.
# Submitted via: ExactAudioCopy v0.99pb5
#
DISCID=660b1608
DTITLE=Андрей Климовский - Алые паруса
DYEAR=1900
DGENRE=New Age
TTITLE0=Ассоль - Мечта Ассоль
TTITLE1=Ассоль - Предсказание
TTITLE2=Ассоль - Кораблик
TTITLE3=Ассоль - Океан Надежды
TTITLE4=Артур Грей - Зов моря
TTITLE5=Артур Грей - Первое плавание
TTITLE6=Артур Грей - Ночная встреча
TTITLE7=Артур Грей - Алые паруса
EXTD=
EXTT0=
EXTT1=
EXTT2=
EXTT3=
EXTT4=
EXTT5=
EXTT6=
EXTT7=
PLAYORDER=
